<svg xmlns="http://www.w3.org/2000/svg" xmlns:xlink="http://www.w3.org/1999/xlink" xmlns:lucid="lucid" width="1346.14" height="1278.98"><g transform="translate(661.5 41.5)" lucid:page-tab-id="0_0"><path d="M-380 46a6 6 0 0 1 6-6h948a6 6 0 0 1 6 6v528a6 6 0 0 1-6 6h-948a6 6 0 0 1-6-6z" stroke="#000" stroke-width="2" fill="#fbf0ff"/><path d="M-360 126a6 6 0 0 1 6-6H-6a6 6 0 0 1 6 6v188a6 6 0 0 1-6 6h-348a6 6 0 0 1-6-6z" stroke="#000" stroke-width="2" fill="#e3fae3"/><path d="M-340 174.42a6 6 0 0 1 6-6h308a6 6 0 0 1 6 6v48a6 6 0 0 1-6 6h-308a6 6 0 0 1-6-6z" stroke="#000" stroke-width="2" fill="#edf5ff"/><use xlink:href="#a" transform="matrix(1,0,0,1,-328,180.42317708333331) translate(29.1252170138889 26.02777777777778)"/><use xlink:href="#b" transform="matrix(1,0,0,1,-328,180.42317708333331) translate(153.52842881944446 26.02777777777778)"/><use xlink:href="#c" transform="matrix(1,0,0,1,-328,180.42317708333331) translate(205.96983506944446 26.02777777777778)"/><path d="M-340 246a6 6 0 0 1 6-6h308a6 6 0 0 1 6 6v48a6 6 0 0 1-6 6h-308a6 6 0 0 1-6-6z" stroke="#000" stroke-width="2" fill="#edf5ff"/><use xlink:href="#a" transform="matrix(1,0,0,1,-328,252) translate(4.228298611111114 26.02777777777778)"/><use xlink:href="#d" transform="matrix(1,0,0,1,-328,252) translate(128.63151041666666 26.02777777777778)"/><use xlink:href="#e" transform="matrix(1,0,0,1,-328,252) translate(194.3433159722222 26.02777777777778)"/><path d="M-235.47 129.1a6 6 0 0 1 6-6h98.94a6 6 0 0 1 6 6V154a6 6 0 0 1-6 6h-98.94a6 6 0 0 1-6-6z" fill="none"/><use xlink:href="#f" transform="matrix(1,0,0,1,-230.46615451388888,128.10197916666664) translate(0 21.58376736111111)"/><use xlink:href="#g" transform="matrix(1,0,0,1,-230.46615451388888,128.10197916666664) translate(91.88368055555554 21.58376736111111)"/><path d="M-360 366a6 6 0 0 1 6-6H-6a6 6 0 0 1 6 6v188a6 6 0 0 1-6 6h-348a6 6 0 0 1-6-6z" stroke="#000" stroke-width="2" fill="#e3fae3"/><path d="M-340 414.42a6 6 0 0 1 6-6h308a6 6 0 0 1 6 6v48a6 6 0 0 1-6 6h-308a6 6 0 0 1-6-6z" stroke="#000" stroke-width="2" fill="#edf5ff"/><use xlink:href="#a" transform="matrix(1,0,0,1,-328,420.4231770833333) translate(29.1252170138889 26.02777777777778)"/><use xlink:href="#b" transform="matrix(1,0,0,1,-328,420.4231770833333) translate(153.52842881944446 26.02777777777778)"/><use xlink:href="#c" transform="matrix(1,0,0,1,-328,420.4231770833333) translate(205.96983506944446 26.02777777777778)"/><path d="M-340 486a6 6 0 0 1 6-6h308a6 6 0 0 1 6 6v48a6 6 0 0 1-6 6h-308a6 6 0 0 1-6-6z" stroke="#000" stroke-width="2" fill="#edf5ff"/><use xlink:href="#a" transform="matrix(1,0,0,1,-328,492) translate(4.228298611111114 26.02777777777778)"/><use xlink:href="#d" transform="matrix(1,0,0,1,-328,492) translate(128.63151041666666 26.02777777777778)"/><use xlink:href="#e" transform="matrix(1,0,0,1,-328,492) translate(194.3433159722222 26.02777777777778)"/><path d="M-235.47 369.1a6 6 0 0 1 6-6h103.45a6 6 0 0 1 6 6V394a6 6 0 0 1-6 6h-103.45a6 6 0 0 1-6-6z" fill="none"/><use xlink:href="#f" transform="matrix(1,0,0,1,-230.46615451388888,368.10197916666664) translate(0 21.58376736111111)"/><use xlink:href="#h" transform="matrix(1,0,0,1,-230.46615451388888,368.10197916666664) translate(91.88368055555554 21.58376736111111)"/><path d="M120 366a6 6 0 0 1 6-6h428a6 6 0 0 1 6 6v188a6 6 0 0 1-6 6H126a6 6 0 0 1-6-6z" stroke="#000" stroke-width="2" fill="#fcfcca"/><path d="M140 414.42a6 6 0 0 1 6-6h388a6 6 0 0 1 6 6v48a6 6 0 0 1-6 6H146a6 6 0 0 1-6-6z" stroke="#000" stroke-width="2" fill="#edf5ff"/><use xlink:href="#a" transform="matrix(1,0,0,1,152,420.4231770833333) translate(29.70464409722223 26.02777777777778)"/><use xlink:href="#b" transform="matrix(1,0,0,1,152,420.4231770833333) translate(154.10785590277777 26.02777777777778)"/><use xlink:href="#i" transform="matrix(1,0,0,1,152,420.4231770833333) translate(206.54926215277777 26.02777777777778)"/><use xlink:href="#j" transform="matrix(1,0,0,1,152,420.4231770833333) translate(273.70421006944446 26.02777777777778)"/><path d="M140 486a6 6 0 0 1 6-6h388a6 6 0 0 1 6 6v48a6 6 0 0 1-6 6H146a6 6 0 0 1-6-6z" stroke="#000" stroke-width="2" fill="#edf5ff"/><use xlink:href="#a" transform="matrix(1,0,0,1,152,492) translate(0.07139756944445708 26.02777777777778)"/><use xlink:href="#d" transform="matrix(1,0,0,1,152,492) translate(124.474609375 26.02777777777778)"/><use xlink:href="#k" transform="matrix(1,0,0,1,152,492) translate(190.18641493055554 26.02777777777778)"/><use xlink:href="#e" transform="matrix(1,0,0,1,152,492) translate(278.50021701388886 26.02777777777778)"/><path d="M236.86 369.1a6 6 0 0 1 6-6h194.28a6 6 0 0 1 6 6V394a6 6 0 0 1-6 6H242.86a6 6 0 0 1-6-6z" fill="none"/><use xlink:href="#l" transform="matrix(1,0,0,1,241.85589409722223,368.10197916666664) translate(0 21.58376736111111)"/><use xlink:href="#m" transform="matrix(1,0,0,1,241.85589409722223,368.10197916666664) translate(90.84201388888887 21.58376736111111)"/><use xlink:href="#h" transform="matrix(1,0,0,1,241.85589409722223,368.10197916666664) translate(182.7256944444444 21.58376736111111)"/><path d="M40 66a6 6 0 0 1 6-6h151.6a6 6 0 0 1 6 6v24.9a6 6 0 0 1-6 6H46a6 6 0 0 1-6-6z" fill="none"/><use xlink:href="#f" transform="matrix(1,0,0,1,45,65) translate(0 21.58376736111111)"/><use xlink:href="#n" transform="matrix(1,0,0,1,45,65) translate(91.88368055555554 21.58376736111111)"/><path d="M-410-34a6 6 0 0 1 6-6H24a6 6 0 0 1 6 6v631.1a6 6 0 0 1-6 6h-428a6 6 0 0 1-6-6z" fill-opacity="0"/><path d="M-389.14-40h5.95m11.9 0h5.94m11.9 0h5.93m11.9 0h5.94m11.9 0h5.94m11.9 0h5.93m11.9 0h5.94m11.9 0h5.94m11.9 0h5.93m11.9 0h5.94m11.9 0h5.94m11.9 0h5.93m11.9 0h5.94m11.9 0h5.94m11.9 0h5.93m11.9 0h5.94m11.9 0h5.94m11.9 0h5.93m11.9 0h5.94m11.9 0h5.94m11.9 0h5.93m11.9 0h5.94m11.9 0h5.94m11.9 0H24a6 6 0 0 1 6 6v3m0 12.03v6M30-.93v6m0 12.03v6m0 12.02v6m0 12.03v6m0 12.03v6m0 12.03v6.03m0 12.02v6m0 12.03v6m0 12.03v6.02m0 12.02v6m0 12.03v6m0 12.03v6m0 12.04v6m0 12.03v6m0 12.03v6m0 12.03v6m0 12.03v6m0 12.03v6m0 12.02v6m0 12.04v6m0 12.03v6m0 12.02v6m0 12.03v6m0 12.03v6m0 12.03v6.02m0 12.03v6m0 12.03v6m0 12.03v6.02m0 12.02v6m0 12.03v6M30 540v6m0 12.03v6m0 12.04v6m0 12.03v3a6 6 0 0 1-6 6h-2.97m-11.9 0H3.2m-11.9 0h-5.94m-11.9 0h-5.93m-11.9 0h-5.94m-11.9 0h-5.94m-11.9 0h-5.93m-11.9 0h-5.94m-11.9 0h-5.94m-11.9 0h-5.93m-11.9 0h-5.94m-11.9 0h-5.94m-11.9 0h-5.93m-11.9 0h-5.94m-11.9 0h-5.94m-11.9 0h-5.93m-11.9 0h-5.94m-11.9 0h-5.94m-11.9 0h-5.93m-11.9 0h-5.94m-11.9 0h-5.94m-11.9 0h-5.93m-11.9 0h-5.94m-11.9 0h-5.94m-11.9 0H-404a6 6 0 0 1-6-6v-3m0-12.02v-6m0-12.04v-6m0-12.03v-6m0-12.02v-6m0-12.03v-6m0-12.03v-6m0-12.03v-6.02m0-12.02v-6m0-12.04v-6m0-12.03v-6.02m0-12.02v-6m0-12.03v-6m0-12.03v-6m0-12.03v-6m0-12.04v-6m0-12.03v-6m0-12.03v-6m0-12.03v-6m0-12.03v-6m0-12.02v-6m0-12.03v-6m0-12.03v-6.02m0-12.02v-6m0-12.03v-6m0-12.03v-6m0-12.03v-6.02m0-12.02v-6m0-12.03V89.2m0-12v-6.02m0-12.02v-6m0-12.03v-6m0-12.03v-6m0-12.03v-6m0-12.03v-6m0-12.04v-3a6 6 0 0 1 6-6h2.97" stroke="#ba23f6" stroke-width="3" fill="none"/><path d="M-325.45-14a6 6 0 0 1 6-6H-24.7a6 6 0 0 1 6.02 6v24.9a6 6 0 0 1-6 6h-294.77a6 6 0 0 1-6-6z" fill="none"/><use xlink:href="#o" transform="matrix(1,0,0,1,-320.4509635416666,-15) translate(0 21.58376736111111)"/><use xlink:href="#p" transform="matrix(1,0,0,1,-320.4509635416666,-15) translate(56.26085069444444 21.58376736111111)"/><path d="M-660 346a6 6 0 0 1 6-6H594a6 6 0 0 1 6 6v268a6 6 0 0 1-6 6H-654a6 6 0 0 1-6-6z" fill-opacity="0"/><path d="M-638.93 340h6.03m12.06 0h6.03m12.05 0h6.02m12.06 0h6.03m12.06 0h6.03m12.06 0h6.04m12.05 0h6.02m12.06 0h6.03m12.07 0h6.03m12.06 0h6.02m12.06 0h6.03m12.06 0h6.03m12.06 0h6.02m12.06 0h6.03m12.06 0h6.02m12.06 0h6.03m12.06 0h6.03m12.05 0h6.03m12.06 0h6.03m12.06 0h6.02m12.06 0h6.04m12.06 0h6.03m12.06 0h6m12.07 0h6.03m12.06 0h6.03m12.05 0h6.03m12.05 0h6.03m12.06 0h6.03m12.06 0h6.04m12.05 0h6.02m12.06 0h6.03m12.07 0h6.03m12.05 0h6.03m12.06 0h6.03m12.06 0h6.03m12.06 0H.14m12.06 0h6.03m12.06 0h6.02m12.06 0h6.03m12.06 0h6.03m12.05 0h6.03m12.06 0h6.03m12.05 0h6.03m12.06 0h6.04m12.06 0h6.03m12.06 0h6m12.07 0h6.03m12.06 0h6.03m12.05 0h6.03m12.05 0h6.03m12.06 0h6.03m12.06 0h6.04m12.05 0h6.02m12.06 0h6.03m12.07 0h6.03m12.06 0h6.02m12.06 0h6.03m12.06 0h6.03m12.06 0h6.02m12.06 0h6.03m12.06 0h6.02m12.06 0h6.03m12.06 0h6.03m12.05 0h6.03m12.06 0h6.03m12.06 0h6.02m12.06 0h6.04m12.06 0h6.03m12.06 0h3a6 6 0 0 1 6 6v2.98m0 11.9v5.96m0 11.92v5.95m0 11.92v5.96m0 11.9v5.96m0 11.92v5.95m0 11.92v5.96m0 11.9v5.96m0 11.92v5.95m0 11.92v5.96m0 11.9v5.96m0 11.92v5.95m0 11.92v5.96m0 11.9v5.96m0 11.92v5.95m0 11.92V614a6 6 0 0 1-6 6h-3m-12.07 0h-6.03m-12.06 0h-6.03m-12.05 0h-6.02m-12.06 0h-6.03m-12.06 0h-6.03m-12.06 0h-6.04m-12.05 0h-6.02m-12.06 0h-6.03m-12.07 0h-6.03m-12.06 0h-6.02m-12.06 0h-6.03m-12.06 0h-6.03m-12.06 0h-6.02m-12.06 0h-6.03m-12.06 0h-6.02m-12.06 0h-6.03m-12.06 0h-6.03m-12.05 0h-6.03m-12.06 0h-6.03m-12.06 0h-6.02m-12.06 0h-6.04m-12.06 0h-6.03M181 620h-6m-12.07 0h-6.03m-12.06 0h-6.03m-12.05 0h-6.03m-12.05 0h-6.03m-12.06 0h-6.03m-12.06 0h-6.04m-12.05 0H48.4m-12.06 0H30.3m-12.07 0H12.2M.15 620H-5.9m-12.06 0h-6.03m-12.06 0h-6.03m-12.06 0h-6.03m-12.05 0h-6.03m-12.06 0h-6.02m-12.06 0h-6.03m-12.06 0h-6.03m-12.05 0h-6.03m-12.06 0h-6.03m-12.06 0h-6.02m-12.06 0h-6.04m-12.06 0h-6.03m-12.06 0h-6m-12.07 0h-6.03m-12.06 0h-6.03m-12.05 0h-6.02m-12.06 0h-6.03m-12.06 0h-6.03m-12.06 0h-6.04m-12.05 0h-6.02m-12.06 0h-6.03m-12.07 0h-6.03m-12.06 0h-6.02m-12.06 0h-6.03m-12.06 0h-6.03m-12.06 0h-6.02m-12.06 0h-6.03m-12.06 0h-6.02m-12.06 0h-6.03m-12.06 0h-6.03m-12.05 0h-6.03m-12.06 0h-6.03m-12.06 0h-6.02m-12.06 0h-6.04m-12.06 0h-6.03m-12.06 0h-3a6 6 0 0 1-6-6v-2.98m0-11.9v-5.96m0-11.92v-5.95m0-11.92v-5.96m0-11.9v-5.96m0-11.92v-5.95m0-11.92v-5.96m0-11.9v-5.96m0-11.92v-5.95m0-11.92v-5.96m0-11.9v-5.96m0-11.92v-5.95m0-11.92v-5.96m0-11.9v-5.96m0-11.92v-5.95m0-11.92V346a6 6 0 0 1 6-6h3" stroke="#1071e5" stroke-width="3" fill="none"/><path d="M-640 431.42a6 6 0 0 1 6-6h208a6 6 0 0 1 6 6v57.16a6 6 0 0 1-6 6h-208a6 6 0 0 1-6-6z" fill="none"/><use xlink:href="#q" transform="matrix(1,0,0,1,-635,430.4181770833333) translate(0 21.95095486111111)"/><use xlink:href="#r" transform="matrix(1,0,0,1,-635,430.4181770833333) translate(100.34722222222221 21.95095486111111)"/><use xlink:href="#s" transform="matrix(1,0,0,1,-635,430.4181770833333) translate(180.2517361111111 21.95095486111111)"/><use xlink:href="#t" transform="matrix(1,0,0,1,-635,430.4181770833333) translate(0 54.21657986111111)"/><use xlink:href="#u" transform="matrix(1,0,0,1,-635,430.4181770833333) translate(90.66840277777779 54.21657986111111)"/><path d="M-413.14 766a6 6 0 0 1 6-6h188a6 6 0 0 1 6 6v108a6 6 0 0 1-6 6h-188a6 6 0 0 1-6-6z" stroke="#000" stroke-width="2" fill="#f4d9ff"/><use xlink:href="#v" transform="matrix(1,0,0,1,-401.1441059027777,772) translate(20.77994791666667 57.52777777777778)"/><use xlink:href="#w" transform="matrix(1,0,0,1,-401.1441059027777,772) translate(76.61762152777777 57.52777777777778)"/><path d="M0 766a6 6 0 0 1 6-6h188a6 6 0 0 1 6 6v108a6 6 0 0 1-6 6H6a6 6 0 0 1-6-6z" stroke="#000" stroke-width="2" fill="#fcfcca"/><use xlink:href="#x" transform="matrix(1,0,0,1,12,772) translate(4.574435763888886 57.52777777777778)"/><use xlink:href="#y" transform="matrix(1,0,0,1,12,772) translate(73.13997395833333 57.52777777777778)"/><path d="M413.14 766a6 6 0 0 1 6-6h188a6 6 0 0 1 6 6v108a6 6 0 0 1-6 6h-188a6 6 0 0 1-6-6z" stroke="#000" stroke-width="2" fill="#c3f7c8"/><use xlink:href="#z" transform="matrix(1,0,0,1,425.1441059027777,772) translate(1.3138020833333428 57.52777777777778)"/><use xlink:href="#A" transform="matrix(1,0,0,1,425.1441059027777,772) translate(115.8862847222222 57.52777777777778)"/><path d="M100 882.5v53.87" stroke="#3a414a" stroke-width="3" stroke-linejoin="round" fill="none"/><path d="M101.47 882.54h-2.94V881h2.94z" stroke="#3a414a" stroke-width=".05" fill="#3a414a"/><path d="M100 952.14l-4.64-14.27h9.28z" stroke="#3a414a" stroke-width="3" fill="#3a414a"/><path d="M0 964a6 6 0 0 1 6-6h188a6 6 0 0 1 6 6v108a6 6 0 0 1-6 6H6a6 6 0 0 1-6-6z" stroke="#000" stroke-width="2" fill="#fff7a1"/><g><use xlink:href="#B" transform="matrix(1,0,0,1,12,969.9899902591953) translate(26.368055555555557 39.52777777777778)"/><use xlink:href="#C" transform="matrix(1,0,0,1,12,969.9899902591953) translate(2.241536458333343 71.79340277777777)"/><use xlink:href="#D" transform="matrix(1,0,0,1,12,969.9899902591953) translate(70.80707465277779 71.79340277777777)"/></g><path d="M-183.14 1155.98c22.1 0 40 17.9 40 40s-17.9 40-40 40h-260c-22.1 0-40-17.9-40-40s17.9-40 40-40z" stroke="#e08fff" stroke-width="3" fill="#fff"/><g><use xlink:href="#v" transform="matrix(1,0,0,1,-478.1441059027777,1160.9799805183907) translate(3.28125 43.40277777777778)"/><use xlink:href="#E" transform="matrix(1,0,0,1,-478.1441059027777,1160.9799805183907) translate(59.11892361111111 43.40277777777778)"/><use xlink:href="#F" transform="matrix(1,0,0,1,-478.1441059027777,1160.9799805183907) translate(151.78385416666666 43.40277777777778)"/><use xlink:href="#G" transform="matrix(1,0,0,1,-478.1441059027777,1160.9799805183907) translate(166.04166666666666 43.40277777777778)"/></g><path d="M230 1155.98c22.1 0 40 17.9 40 40s-17.9 40-40 40H-30c-22.1 0-40-17.9-40-40s17.9-40 40-40z" stroke="#fcce14" stroke-width="3" fill="#fff"/><g><use xlink:href="#x" transform="matrix(1,0,0,1,-65,1160.9799805183907) translate(38.18793402777777 43.40277777777778)"/><use xlink:href="#H" transform="matrix(1,0,0,1,-65,1160.9799805183907) translate(106.75347222222221 43.40277777777778)"/></g><path d="M643.14 1155.98c22.1 0 40 17.9 40 40s-17.9 40-40 40h-260c-22.1 0-40-17.9-40-40s17.9-40 40-40z" stroke="#54c45e" stroke-width="3" fill="#fff"/><g><use xlink:href="#I" transform="matrix(1,0,0,1,348.1441059027777,1160.9799805183907) translate(17.180564236111117 25.90277777777778)"/><use xlink:href="#d" transform="matrix(1,0,0,1,348.1441059027777,1160.9799805183907) translate(114.9778732638889 25.90277777777778)"/><use xlink:href="#J" transform="matrix(1,0,0,1,348.1441059027777,1160.9799805183907) translate(180.68967881944445 25.90277777777778)"/><use xlink:href="#K" transform="matrix(1,0,0,1,348.1441059027777,1160.9799805183907) translate(273.6150260416666 25.90277777777778)"/><use xlink:href="#L" transform="matrix(1,0,0,1,348.1441059027777,1160.9799805183907) translate(78.07466145833334 58.16840277777778)"/><use xlink:href="#M" transform="matrix(1,0,0,1,348.1441059027777,1160.9799805183907) translate(181.753046875 58.16840277777778)"/></g><path d="M-313.14 882.5v4.44m0 5.9v8.88m0 5.92v8.87m0 5.92v8.88m0 5.9v8.88m0 5.92v8.87m0 5.9v8.88m0 5.92v8.87m0 5.9v8.88m0 5.92v8.87m0 5.92v8.88m0 5.9v8.88m0 5.92v8.87m0 5.9v8.88m0 5.92v8.87m0 5.9v8.88m0 5.92v8.87m0 5.92v4.44" stroke="#ba23f6" stroke-width="3" stroke-linejoin="round" fill="none"/><path d="M-311.67 882.54h-2.95V881h2.95z" stroke="#ba23f6" stroke-width=".05" fill="#ba23f6"/><path d="M-313.14 1149.63l-4.64-14.27h9.27z" stroke="#ba23f6" stroke-width="3" fill="#ba23f6"/><path d="M100 1080.5v4m0 5.33v8m0 5.34v8m0 5.35v8m0 5.34v4" stroke="#fc9432" stroke-width="3" stroke-linejoin="round" fill="none"/><path d="M101.47 1080.53h-2.94V1079h2.94z" stroke="#fc9432" stroke-width=".05" fill="#fc9432"/><path d="M100 1149.63l-4.64-14.27h9.28z" stroke="#fc9432" stroke-width="3" fill="#fc9432"/><path d="M513.14 882.5v4.44m0 5.9v8.88m0 5.92v8.87m0 5.92v8.88m0 5.9v8.88m0 5.92v8.87m0 5.9v8.88m0 5.92v8.87m0 5.9v8.88m0 5.92v8.87m0 5.92v8.88m0 5.9v8.88m0 5.92v8.87m0 5.9v8.88m0 5.92v8.87m0 5.9v8.88m0 5.92v8.87m0 5.92v4.44" stroke="#008a0e" stroke-width="3" stroke-linejoin="round" fill="none"/><path d="M514.62 882.54h-2.95V881h2.95z" stroke="#008a0e" stroke-width=".05" fill="#008a0e"/><path d="M513.14 1149.63l-4.63-14.27h9.28z" stroke="#008a0e" stroke-width="3" fill="#008a0e"/><path d="M99.96 582.5l-.06.88-.12 1.16-.17 1.16-.2 1.15-.28 1.15-.33 1.16-.4 1.17-.43 1.18-.5 1.2-.57 1.22-.66 1.25-.73 1.28-.83 1.32-.95 1.37-1.08 1.42-1.23 1.5-1.4 1.55-1.62 1.65-1.86 1.75-2.16 1.87-2.54 2-3 2.18-3.57 2.38-4.33 2.6-5.3 2.93-6.67 3.3-8.52 3.78-11.3 4.46-15.68 5.43-23.6 7.1-43.6 11.05-169.24 38.9-23.6 7.1-15.68 5.42-11.3 4.46-8.52 3.8-6.65 3.28-5.3 2.92-4.34 2.62-3.57 2.37-3 2.17-2.53 2-2.17 1.88-1.86 1.75-1.6 1.64-1.42 1.55-1.23 1.5-.42.54" stroke="#3a414a" stroke-width="3" stroke-linejoin="round" fill="none"/><path d="M101.44 582.57l-2.95-.06.03-1.5h2.94z" stroke="#3a414a" stroke-width=".05" fill="#3a414a"/><path d="M-311.48 754.44l.54-15 8.7 3.2z" stroke="#3a414a" stroke-width="3" fill="#3a414a"/><path d="M100 582.5v155.88" stroke="#3a414a" stroke-width="3" stroke-linejoin="round" fill="none"/><path d="M101.47 582.54h-2.94V581h2.94z" stroke="#3a414a" stroke-width=".05" fill="#3a414a"/><path d="M100 754.15l-4.64-14.27h9.28z" stroke="#3a414a" stroke-width="3" fill="#3a414a"/><path d="M100.04 582.5l.06.88.12 1.16.17 1.16.2 1.15.28 1.15.33 1.16.4 1.17.43 1.18.5 1.2.57 1.22.66 1.25.73 1.28.83 1.32.95 1.37 1.08 1.42 1.23 1.5 1.4 1.55 1.62 1.65 1.86 1.75 2.16 1.87 2.54 2 3 2.18 3.57 2.38 4.33 2.6 5.3 2.93 6.66 3.3 8.53 3.78 11.3 4.46 15.68 5.43 23.6 7.1 43.6 11.05 169.24 38.9 23.6 7.1 15.68 5.42 11.3 4.46 8.52 3.8 6.65 3.28 5.3 2.92 4.34 2.62 3.57 2.37 3 2.17 2.53 2 2.17 1.88 1.86 1.75 1.6 1.64 1.42 1.55 1.23 1.5.42.54" stroke="#3a414a" stroke-width="3" stroke-linejoin="round" fill="none"/><path d="M101.5 582.5l-2.94.07-.03-1.57h2.94z" stroke="#3a414a" stroke-width=".05" fill="#3a414a"/><path d="M511.48 754.44l-9.25-11.8 8.7-3.2z" stroke="#3a414a" stroke-width="3" fill="#3a414a"/><defs><path d="M370-1490V0H180v-1490h190" id="N"/><path d="M338-670V0H158v-1118h173l1 207c72-158 192-221 342-221 226 0 378 139 378 422V0H872v-695c0-172-96-275-252-275-161 0-282 109-282 300" id="O"/><path d="M598-1118v154H368v674c0 100 37 144 132 144 23 0 62-6 92-12L629-6c-37 13-88 20-134 20-193 0-307-107-307-290v-688H20v-154h168v-266h180v266h230" id="P"/><path d="M628 24c-324 0-524-230-524-574 0-343 198-582 503-582 237 0 487 146 487 559v75H286c9 234 145 362 343 362 132 0 231-58 273-172l174 48C1024-91 857 24 628 24zM287-650h624c-17-190-120-322-304-322-192 0-309 151-320 322" id="Q"/><path d="M158 0v-1118h174v172h12c41-113 157-188 290-188 26 0 70 2 91 3v181c-11-2-60-10-108-10-161 0-279 109-279 260V0H158" id="R"/><path d="M471 26C259 26 90-98 90-318c0-256 228-303 435-329 202-27 287-16 287-108 0-139-79-219-234-219-161 0-248 86-283 164l-173-57c86-203 278-265 451-265 150 0 419 46 419 395V0H815v-152h-12C765-73 660 26 471 26zm31-159c199 0 310-134 310-271v-155c-30 35-226 55-295 64-131 17-246 59-246 186 0 116 97 176 231 176" id="S"/><path d="M613 24c-304 0-509-231-509-576 0-350 205-580 509-580 216 0 392 114 453 309l-173 49c-33-115-133-197-280-197-223 0-326 196-326 419 0 220 103 415 326 415 150 0 252-85 285-206l172 49C1010-95 832 24 613 24" id="T"/><path d="M158 0v-1118h180V0H158zm91-1301c-68 0-125-53-125-119s57-119 125-119c69 0 126 53 126 119s-57 119-126 119" id="U"/><path d="M613 24c-304 0-509-231-509-576 0-350 205-580 509-580 305 0 511 230 511 580 0 345-206 576-511 576zm0-161c226 0 329-195 329-415 0-222-103-419-329-419-223 0-326 196-326 419 0 220 103 415 326 415" id="V"/><path d="M295 13c-75 0-135-60-135-135s60-135 135-135 135 60 135 135S370 13 295 13zm0-809c-75 0-135-60-135-135s60-135 135-135 135 60 135 135-60 135-135 135" id="W"/><g id="a"><use transform="matrix(0.010850694444444444,0,0,0.010850694444444444,0,0)" xlink:href="#N"/><use transform="matrix(0.010850694444444444,0,0,0.010850694444444444,5.967881944444445,0)" xlink:href="#O"/><use transform="matrix(0.010850694444444444,0,0,0.010850694444444444,19.09722222222222,0)" xlink:href="#P"/><use transform="matrix(0.010850694444444444,0,0,0.010850694444444444,26.15017361111111,0)" xlink:href="#Q"/><use transform="matrix(0.010850694444444444,0,0,0.010850694444444444,39.10590277777778,0)" xlink:href="#R"/><use transform="matrix(0.010850694444444444,0,0,0.010850694444444444,47.47178819444444,0)" xlink:href="#S"/><use transform="matrix(0.010850694444444444,0,0,0.010850694444444444,59.95008680555555,0)" xlink:href="#T"/><use transform="matrix(0.010850694444444444,0,0,0.010850694444444444,72.64539930555556,0)" xlink:href="#P"/><use transform="matrix(0.010850694444444444,0,0,0.010850694444444444,79.91536458333333,0)" xlink:href="#U"/><use transform="matrix(0.010850694444444444,0,0,0.010850694444444444,85.29730902777777,0)" xlink:href="#V"/><use transform="matrix(0.010850694444444444,0,0,0.010850694444444444,98.62196180555556,0)" xlink:href="#O"/><use transform="matrix(0.010850694444444444,0,0,0.010850694444444444,111.75130208333331,0)" xlink:href="#W"/></g><path d="M537 14c-226 0-379-139-379-422v-710h180v695c0 172 97 275 253 275 160 0 281-109 281-300v-670h181V0H879v-209C806-46 684 14 537 14" id="X"/><path d="M538 24C308 24 148-78 108-271l171-41c32 123 123 178 257 178 156 0 256-77 256-169 0-77-54-128-164-154l-186-44c-203-48-300-148-300-305 0-192 176-326 414-326 230 0 351 112 402 269l-163 42c-31-80-94-158-238-158-133 0-233 69-233 162 0 83 57 129 188 160l169 40c203 48 298 149 298 302 0 196-179 339-441 339" id="Y"/><g id="b"><use transform="matrix(0.010850694444444444,0,0,0.010850694444444444,0,0)" xlink:href="#X"/><use transform="matrix(0.010850694444444444,0,0,0.010850694444444444,13.140190972222221,0)" xlink:href="#Y"/><use transform="matrix(0.010850694444444444,0,0,0.010850694444444444,24.869791666666664,0)" xlink:href="#Q"/><use transform="matrix(0.010850694444444444,0,0,0.010850694444444444,37.82552083333333,0)" xlink:href="#R"/></g><path d="M1096 418H916v-591h-14C865-111 790 24 577 24c-279 0-473-224-473-580 0-354 195-576 474-576 218 0 287 134 324 193h20v-179h174V418zM604-137c203 0 314-172 314-421 0-247-108-413-314-413-212 0-317 181-317 413 0 235 108 421 317 421" id="Z"/><path d="M140 405l46-156c120 36 205 19 263-150l32-93L54-1118h197c107 313 237 620 324 950 87-331 219-637 326-950h196L606 167c-68 178-176 259-334 259-64 0-113-12-132-21" id="aa"/><g id="c"><use transform="matrix(0.010850694444444444,0,0,0.010850694444444444,0,0)" xlink:href="#Z"/><use transform="matrix(0.010850694444444444,0,0,0.010850694444444444,13.606770833333332,0)" xlink:href="#X"/><use transform="matrix(0.010850694444444444,0,0,0.010850694444444444,26.746961805555554,0)" xlink:href="#Q"/><use transform="matrix(0.010850694444444444,0,0,0.010850694444444444,39.70269097222222,0)" xlink:href="#R"/><use transform="matrix(0.010850694444444444,0,0,0.010850694444444444,48.41579861111111,0)" xlink:href="#aa"/></g><path d="M611 442c-248 0-391-105-460-228l146-94c47 65 117 165 314 165 178 0 307-82 307-266v-224h-17C863-141 792-18 576-18c-268 0-472-195-472-546 0-346 197-568 476-568 216 0 288 133 326 193h17v-179h175V29c0 289-215 413-487 413zm-5-620c203 0 314-146 314-390 0-237-108-403-314-403-213 0-319 180-319 403 0 230 109 390 319 390" id="ab"/><g id="d"><use transform="matrix(0.010850694444444444,0,0,0.010850694444444444,0,0)" xlink:href="#S"/><use transform="matrix(0.010850694444444444,0,0,0.010850694444444444,12.47829861111111,0)" xlink:href="#ab"/><use transform="matrix(0.010850694444444444,0,0,0.010850694444444444,26.106770833333332,0)" xlink:href="#Q"/><use transform="matrix(0.010850694444444444,0,0,0.010850694444444444,39.0625,0)" xlink:href="#O"/><use transform="matrix(0.010850694444444444,0,0,0.010850694444444444,52.19184027777778,0)" xlink:href="#P"/></g><path d="M158 418v-1536h174v179h20c37-59 106-193 324-193 279 0 474 222 474 576 0 356-194 580-473 580-213 0-288-135-325-197h-14v591H158zm492-555c209 0 317-186 317-421 0-232-105-413-317-413-206 0-314 166-314 413 0 249 111 421 314 421" id="ac"/><g id="e"><use transform="matrix(0.010850694444444444,0,0,0.010850694444444444,0,0)" xlink:href="#R"/><use transform="matrix(0.010850694444444444,0,0,0.010850694444444444,7.996961805555555,0)" xlink:href="#Q"/><use transform="matrix(0.010850694444444444,0,0,0.010850694444444444,20.95269097222222,0)" xlink:href="#Y"/><use transform="matrix(0.010850694444444444,0,0,0.010850694444444444,32.682291666666664,0)" xlink:href="#ac"/><use transform="matrix(0.010850694444444444,0,0,0.010850694444444444,46.2890625,0)" xlink:href="#V"/><use transform="matrix(0.010850694444444444,0,0,0.010850694444444444,59.61371527777778,0)" xlink:href="#O"/><use transform="matrix(0.010850694444444444,0,0,0.010850694444444444,72.74305555555556,0)" xlink:href="#Y"/><use transform="matrix(0.010850694444444444,0,0,0.010850694444444444,84.47265625,0)" xlink:href="#Q"/></g><path d="M180 0v-1490h510c348 0 508 194 508 460 0 198-88 351-276 417L1256 0h-220L726-579c-117 2-238 0-356 1V0H180zm190-747h312c235 0 327-108 327-283 0-177-92-293-329-293H370v576" id="ad"/><g id="f"><use transform="matrix(0.010850694444444444,0,0,0.010850694444444444,0,0)" xlink:href="#ad"/><use transform="matrix(0.010850694444444444,0,0,0.010850694444444444,13.975694444444445,0)" xlink:href="#Q"/><use transform="matrix(0.010850694444444444,0,0,0.010850694444444444,26.931423611111104,0)" xlink:href="#Z"/><use transform="matrix(0.010850694444444444,0,0,0.010850694444444444,40.53819444444444,0)" xlink:href="#X"/><use transform="matrix(0.010850694444444444,0,0,0.010850694444444444,53.678385416666664,0)" xlink:href="#Q"/><use transform="matrix(0.010850694444444444,0,0,0.010850694444444444,66.63411458333333,0)" xlink:href="#Y"/><use transform="matrix(0.010850694444444444,0,0,0.010850694444444444,78.36371527777777,0)" xlink:href="#P"/></g><path d="M653-1490V0H466v-1314h-10L96-1047v-204l324-239h233" id="ae"/><use transform="matrix(0.010850694444444444,0,0,0.010850694444444444,0,0)" xlink:href="#ae" id="g"/><path d="M154 0v-137l495-537c165-179 249-281 249-418 0-156-121-253-280-253-170 0-278 110-278 278H158c0-264 200-443 465-443 266 0 455 183 455 416 0 161-73 288-336 568L416-179v12h687V0H154" id="af"/><use transform="matrix(0.010850694444444444,0,0,0.010850694444444444,0,0)" xlink:href="#af" id="h"/><g id="i"><use transform="matrix(0.010850694444444444,0,0,0.010850694444444444,0,0)" xlink:href="#Z"/><use transform="matrix(0.010850694444444444,0,0,0.010850694444444444,13.606770833333332,0)" xlink:href="#X"/><use transform="matrix(0.010850694444444444,0,0,0.010850694444444444,26.746961805555554,0)" xlink:href="#Q"/><use transform="matrix(0.010850694444444444,0,0,0.010850694444444444,39.70269097222222,0)" xlink:href="#R"/><use transform="matrix(0.010850694444444444,0,0,0.010850694444444444,48.41579861111111,0)" xlink:href="#aa"/></g><path d="M218-607c0-325 108-727 258-974h175c-155 315-250 682-250 974 0 265 78 531 250 886H476C306-10 218-315 218-607" id="ag"/><path d="M158 0v-1118h175l1 205c55-151 181-225 313-225 147 0 245 90 285 228 53-141 190-228 352-228 194 0 352 125 352 384V0h-181v-749c0-161-105-225-225-225-151 0-243 103-243 244V0H807v-767c0-124-93-207-219-207-131 0-250 92-250 270V0H158" id="ah"/><path d="M96 279C273-86 346-350 346-607c0-292-95-659-250-974h175c150 246 258 650 258 974 0 297-91 602-258 886H96" id="ai"/><g id="j"><use transform="matrix(0.010850694444444444,0,0,0.010850694444444444,0,0)" xlink:href="#ag"/><use transform="matrix(0.010850694444444444,0,0,0.010850694444444444,8.10546875,0)" xlink:href="#Y"/><use transform="matrix(0.010850694444444444,0,0,0.010850694444444444,19.835069444444443,0)" xlink:href="#S"/><use transform="matrix(0.010850694444444444,0,0,0.010850694444444444,32.31336805555556,0)" xlink:href="#ah"/><use transform="matrix(0.010850694444444444,0,0,0.010850694444444444,51.779513888888886,0)" xlink:href="#Q"/><use transform="matrix(0.010850694444444444,0,0,0.010850694444444444,64.48567708333333,0)" xlink:href="#ai"/></g><path d="M338-670V0H158v-1490h180v566c73-149 190-208 336-208 226 0 379 139 379 422V0H872v-695c0-172-96-275-252-275-161 0-282 109-282 300" id="aj"/><path d="M577 24c-279 0-473-224-473-580 0-354 195-576 474-576 218 0 287 134 324 193h14v-551h180V0H922v-173h-20C865-111 790 24 577 24zm27-161c203 0 314-172 314-421 0-247-108-413-314-413-212 0-317 181-317 413 0 235 108 421 317 421" id="ak"/><path d="M409 0L70-1118h191c89 329 165 560 243 925 75-353 154-601 240-925h192c85 325 161 564 235 922 77-354 157-598 244-922h191L1267 0h-179c-86-307-176-590-250-913C763-588 675-308 588 0H409" id="al"/><g id="k"><use transform="matrix(0.010850694444444444,0,0,0.010850694444444444,0,0)" xlink:href="#Y"/><use transform="matrix(0.010850694444444444,0,0,0.010850694444444444,11.729600694444445,0)" xlink:href="#aj"/><use transform="matrix(0.010850694444444444,0,0,0.010850694444444444,24.869791666666664,0)" xlink:href="#S"/><use transform="matrix(0.010850694444444444,0,0,0.010850694444444444,37.34809027777777,0)" xlink:href="#ak"/><use transform="matrix(0.010850694444444444,0,0,0.010850694444444444,50.9548611111111,0)" xlink:href="#V"/><use transform="matrix(0.010850694444444444,0,0,0.010850694444444444,63.878038194444436,0)" xlink:href="#al"/></g><path d="M657 26c-323 0-524-166-541-416h195c15 169 171 246 346 246 202 0 356-106 356-265 5-203-294-238-475-293-239-73-380-191-380-389 0-252 224-419 512-419 294 0 499 171 508 396H992c-17-145-151-228-328-228-193 0-321 102-321 242 0 156 175 211 284 241l149 41c160 44 422 134 422 412 0 244-197 432-541 432" id="am"/><g id="l"><use transform="matrix(0.010850694444444444,0,0,0.010850694444444444,0,0)" xlink:href="#am"/><use transform="matrix(0.010850694444444444,0,0,0.010850694444444444,14.2578125,0)" xlink:href="#aj"/><use transform="matrix(0.010850694444444444,0,0,0.010850694444444444,27.39800347222222,0)" xlink:href="#S"/><use transform="matrix(0.010850694444444444,0,0,0.010850694444444444,39.87630208333333,0)" xlink:href="#ak"/><use transform="matrix(0.010850694444444444,0,0,0.010850694444444444,53.48307291666666,0)" xlink:href="#V"/><use transform="matrix(0.010850694444444444,0,0,0.010850694444444444,66.40624999999999,0)" xlink:href="#al"/></g><g id="m"><use transform="matrix(0.010850694444444444,0,0,0.010850694444444444,0,0)" xlink:href="#ad"/><use transform="matrix(0.010850694444444444,0,0,0.010850694444444444,13.975694444444445,0)" xlink:href="#Q"/><use transform="matrix(0.010850694444444444,0,0,0.010850694444444444,26.931423611111104,0)" xlink:href="#Z"/><use transform="matrix(0.010850694444444444,0,0,0.010850694444444444,40.53819444444444,0)" xlink:href="#X"/><use transform="matrix(0.010850694444444444,0,0,0.010850694444444444,53.678385416666664,0)" xlink:href="#Q"/><use transform="matrix(0.010850694444444444,0,0,0.010850694444444444,66.63411458333333,0)" xlink:href="#Y"/><use transform="matrix(0.010850694444444444,0,0,0.010850694444444444,78.36371527777777,0)" xlink:href="#P"/></g><g id="n"><use transform="matrix(0.010850694444444444,0,0,0.010850694444444444,0,0)" xlink:href="#ab"/><use transform="matrix(0.010850694444444444,0,0,0.010850694444444444,13.628472222222221,0)" xlink:href="#R"/><use transform="matrix(0.010850694444444444,0,0,0.010850694444444444,21.62543402777778,0)" xlink:href="#V"/><use transform="matrix(0.010850694444444444,0,0,0.010850694444444444,34.95008680555556,0)" xlink:href="#X"/><use transform="matrix(0.010850694444444444,0,0,0.010850694444444444,48.09027777777778,0)" xlink:href="#ac"/></g><path d="M750 21c-371 0-615-218-615-544v-967h305v942c0 174 123 299 310 299s309-125 309-299v-942h306v967c0 326-247 544-615 544" id="an"/><path d="M572 22C302 22 117-98 78-306l279-48c29 105 101 156 224 156 114 0 185-48 185-115 0-118-228-130-337-155-215-49-322-150-322-317 0-215 187-347 470-347 265 0 424 116 466 298l-266 47c-24-76-87-130-196-130-98 0-174 46-174 113 0 56 38 95 144 117l201 40c216 44 320 143 320 302 0 220-207 367-500 367" id="ao"/><path d="M633 22C291 22 81-200 81-553c0-345 210-579 537-579 292 0 525 185 525 567v84H378c7 183 109 277 260 277 105 0 184-46 216-132l272 51C1071-99 893 22 633 22zM380-669h474c-15-146-94-237-233-237-143 0-229 99-241 237" id="ap"/><path d="M128 0v-1118h290v195h12c54-169 184-238 367-200v268c-27-8-86-15-130-15-138 0-239 95-239 234V0H128" id="aq"/><g id="o"><use transform="matrix(0.010850694444444444,0,0,0.010850694444444444,0,0)" xlink:href="#an"/><use transform="matrix(0.010850694444444444,0,0,0.010850694444444444,16.26519097222222,0)" xlink:href="#ao"/><use transform="matrix(0.010850694444444444,0,0,0.010850694444444444,28.7109375,0)" xlink:href="#ap"/><use transform="matrix(0.010850694444444444,0,0,0.010850694444444444,41.94878472222222,0)" xlink:href="#aq"/></g><path d="M786 20C389 20 94-260 94-744c0-487 299-766 692-766 339 0 597 194 641 529h-309c-28-162-156-258-326-258-233 0-388 179-388 495 0 323 157 493 387 493 170 0 298-97 328-259h309c-34 277-266 530-642 530" id="ar"/><path d="M628 22C291 22 81-210 81-554c0-346 210-578 547-578 336 0 547 232 547 578 0 344-211 576-547 576zm0-236c160 0 242-146 242-341 0-197-82-341-242-341S387-753 387-555c0 195 81 341 241 341" id="as"/><path d="M428-647V0H128v-1118h283l4 231c63-156 176-245 348-245 232 0 384 159 384 421V0H847v-659c0-139-76-222-202-222-128 0-217 86-217 234" id="at"/><path d="M443 0L31-1118h319c90 293 199 572 268 885 66-313 175-593 264-885h315L784 0H443" id="au"/><path d="M440 22C227 22 68-92 68-313c0-250 202-322 422-343 195-21 271-24 271-105 0-95-63-149-175-149-116 0-187 57-211 129l-275-46c57-194 237-305 487-305 240 0 474 108 474 379V0H777v-155h-10C713-51 605 22 440 22zm85-211c140 0 238-93 238-211v-121c-37 26-156 42-222 51-111 16-185 59-185 149 0 87 70 132 169 132" id="av"/><path d="M683-1118v229H474v562c0 71 29 104 102 104 23 0 73-7 95-13l43 225C647 9 580 16 520 16 296 16 174-96 174-301v-588H20v-229h154v-266h300v266h209" id="aw"/><path d="M128 0v-1118h300V0H128zm150-1264c-91 0-165-68-165-154 0-85 74-154 165-154 90 0 165 69 165 154 0 86-75 154-165 154" id="ax"/><path d="M768-1560L288 224H28l480-1784h260" id="ay"/><path d="M681 22C323 22 94-145 85-462h297c10 151 131 226 296 226 163 0 271-77 271-190 0-102-95-149-257-189l-164-41c-252-61-403-188-403-405 0-269 236-449 560-449 330 0 546 183 551 445H941c-11-119-106-188-259-188-156 0-244 72-244 172-3 156 226 185 373 221 250 61 445 186 445 436 0 271-213 446-575 446" id="az"/><g id="p"><use transform="matrix(0.010850694444444444,0,0,0.010850694444444444,0,0)" xlink:href="#ar"/><use transform="matrix(0.010850694444444444,0,0,0.010850694444444444,16.438802083333332,0)" xlink:href="#as"/><use transform="matrix(0.010850694444444444,0,0,0.010850694444444444,30.067274305555554,0)" xlink:href="#at"/><use transform="matrix(0.010850694444444444,0,0,0.010850694444444444,43.522135416666664,0)" xlink:href="#au"/><use transform="matrix(0.010850694444444444,0,0,0.010850694444444444,56.4453125,0)" xlink:href="#ap"/><use transform="matrix(0.010850694444444444,0,0,0.010850694444444444,69.68315972222223,0)" xlink:href="#aq"/><use transform="matrix(0.010850694444444444,0,0,0.010850694444444444,78.7326388888889,0)" xlink:href="#ao"/><use transform="matrix(0.010850694444444444,0,0,0.010850694444444444,91.17838541666666,0)" xlink:href="#av"/><use transform="matrix(0.010850694444444444,0,0,0.010850694444444444,104.07986111111111,0)" xlink:href="#aw"/><use transform="matrix(0.010850694444444444,0,0,0.010850694444444444,112.21788194444444,0)" xlink:href="#ax"/><use transform="matrix(0.010850694444444444,0,0,0.010850694444444444,118.2400173611111,0)" xlink:href="#as"/><use transform="matrix(0.010850694444444444,0,0,0.010850694444444444,131.86848958333334,0)" xlink:href="#at"/><use transform="matrix(0.010850694444444444,0,0,0.010850694444444444,145.703125,0)" xlink:href="#ay"/><use transform="matrix(0.010850694444444444,0,0,0.010850694444444444,154.32942708333334,0)" xlink:href="#az"/><use transform="matrix(0.010850694444444444,0,0,0.010850694444444444,168.88020833333334,0)" xlink:href="#ap"/><use transform="matrix(0.010850694444444444,0,0,0.010850694444444444,182.1180555555556,0)" xlink:href="#ao"/><use transform="matrix(0.010850694444444444,0,0,0.010850694444444444,194.56380208333331,0)" xlink:href="#ao"/><use transform="matrix(0.010850694444444444,0,0,0.010850694444444444,207.00954861111111,0)" xlink:href="#ax"/><use transform="matrix(0.010850694444444444,0,0,0.010850694444444444,213.03168402777777,0)" xlink:href="#as"/><use transform="matrix(0.010850694444444444,0,0,0.010850694444444444,226.66015625,0)" xlink:href="#at"/></g><path d="M135 0v-1490h468l242 684c30 94 76 293 111 455 34-161 80-360 110-455l238-684h470V0h-307c0-447-3-765 11-1227-122 503-246 788-395 1227H826C676-435 552-717 427-1215c15 453 11 775 11 1215H135" id="aA"/><path d="M513 14c-232 0-385-159-385-421v-711h300v659c0 139 76 222 202 222 127 0 217-86 217-234v-647h301V0H864l-4-232C797-74 683 14 513 14" id="aB"/><g id="q"><use transform="matrix(0.010850694444444444,0,0,0.010850694444444444,0,0)" xlink:href="#aA"/><use transform="matrix(0.010850694444444444,0,0,0.010850694444444444,20.703125,0)" xlink:href="#ap"/><use transform="matrix(0.010850694444444444,0,0,0.010850694444444444,34.157986111111114,0)" xlink:href="#av"/><use transform="matrix(0.010850694444444444,0,0,0.010850694444444444,47.05946180555556,0)" xlink:href="#ao"/><use transform="matrix(0.010850694444444444,0,0,0.010850694444444444,59.50520833333333,0)" xlink:href="#aB"/><use transform="matrix(0.010850694444444444,0,0,0.010850694444444444,73.33984375,0)" xlink:href="#aq"/><use transform="matrix(0.010850694444444444,0,0,0.010850694444444444,81.84678819444444,0)" xlink:href="#ap"/></g><path d="M128 0v-1118h278l12 217c60-163 185-234 319-234 143 0 236 81 288 251 63-172 205-251 359-251 205 0 357 138 357 381V0h-301v-697c0-126-76-187-177-187-114 0-184 79-184 196V0H789v-705c0-109-72-179-174-179-106 0-187 74-187 208V0H128" id="aC"/><path d="M128 418v-1536h295v188h14c41-89 129-202 319-202 248 0 453 193 453 575 0 372-197 576-455 576-183 0-275-108-317-198h-9v597H128zm534-640c156 0 240-139 240-336 0-196-83-334-240-334-154 0-241 131-241 334 0 202 88 336 241 336" id="aD"/><path d="M628 22C291 22 81-210 81-554c0-346 210-578 547-578 265 0 455 142 497 372l-279 52c-25-116-99-188-215-188-160 0-244 139-244 341 0 200 84 341 244 341 116 0 193-74 217-195l279 51C1085-123 896 22 628 22" id="aE"/><g id="r"><use transform="matrix(0.010850694444444444,0,0,0.010850694444444444,0,0)" xlink:href="#ax"/><use transform="matrix(0.010850694444444444,0,0,0.010850694444444444,6.022135416666666,0)" xlink:href="#aC"/><use transform="matrix(0.010850694444444444,0,0,0.010850694444444444,26.30208333333333,0)" xlink:href="#aD"/><use transform="matrix(0.010850694444444444,0,0,0.010850694444444444,40.52734374999999,0)" xlink:href="#av"/><use transform="matrix(0.010850694444444444,0,0,0.010850694444444444,53.428819444444436,0)" xlink:href="#aE"/><use transform="matrix(0.010850694444444444,0,0,0.010850694444444444,66.50390624999999,0)" xlink:href="#aw"/></g><path d="M750-1118v229H516V0H217v-889H20v-229h197v-86c0-238 156-356 363-356 94 0 178 20 215 31l-54 226c-25-7-61-15-100-15-123-3-131 84-125 200h234" id="aF"/><g id="s"><use transform="matrix(0.010850694444444444,0,0,0.010850694444444444,0,0)" xlink:href="#as"/><use transform="matrix(0.010850694444444444,0,0,0.010850694444444444,13.628472222222221,0)" xlink:href="#aF"/></g><path d="M428-647V0H128v-1490h294v586c65-146 175-228 341-228 232 0 385 159 385 421V0H847v-659c0-139-76-222-202-222-128 0-217 86-217 234" id="aG"/><path d="M537 19C279 19 81-185 81-557c0-382 206-575 454-575 190 0 278 113 318 202h10v-560h300V0H868v-179h-15C812-89 719 19 537 19zm92-241c153 0 240-134 240-336 0-203-86-334-240-334-158 0-240 138-240 334 0 197 84 336 240 336" id="aH"/><path d="M361 0L31-1118h315c68 295 127 523 188 845 63-317 128-551 199-845h276c71 296 131 525 196 846 57-321 119-552 186-846h319L1378 0h-305c-73-261-148-486-204-771C813-484 740-261 666 0H361" id="aI"/><g id="t"><use transform="matrix(0.010850694444444444,0,0,0.010850694444444444,0,0)" xlink:href="#ao"/><use transform="matrix(0.010850694444444444,0,0,0.010850694444444444,12.445746527777777,0)" xlink:href="#aG"/><use transform="matrix(0.010850694444444444,0,0,0.010850694444444444,26.280381944444443,0)" xlink:href="#av"/><use transform="matrix(0.010850694444444444,0,0,0.010850694444444444,39.181857638888886,0)" xlink:href="#aH"/><use transform="matrix(0.010850694444444444,0,0,0.010850694444444444,53.190104166666664,0)" xlink:href="#as"/><use transform="matrix(0.010850694444444444,0,0,0.010850694444444444,66.51475694444444,0)" xlink:href="#aI"/></g><g id="u"><use transform="matrix(0.010850694444444444,0,0,0.010850694444444444,0,0)" xlink:href="#aq"/><use transform="matrix(0.010850694444444444,0,0,0.010850694444444444,8.506944444444445,0)" xlink:href="#ap"/><use transform="matrix(0.010850694444444444,0,0,0.010850694444444444,21.744791666666664,0)" xlink:href="#ao"/><use transform="matrix(0.010850694444444444,0,0,0.010850694444444444,34.19053819444444,0)" xlink:href="#aD"/><use transform="matrix(0.010850694444444444,0,0,0.010850694444444444,48.19878472222222,0)" xlink:href="#as"/><use transform="matrix(0.010850694444444444,0,0,0.010850694444444444,61.82725694444444,0)" xlink:href="#at"/><use transform="matrix(0.010850694444444444,0,0,0.010850694444444444,75.66189236111111,0)" xlink:href="#ao"/><use transform="matrix(0.010850694444444444,0,0,0.010850694444444444,88.10763888888889,0)" xlink:href="#ap"/></g><path d="M763 24c-353 0-583-224-583-531v-983h190v968c0 214 149 370 393 370 243 0 391-156 391-370v-968h190v983c0 307-230 531-581 531" id="aJ"/><g id="v"><use transform="matrix(0.010850694444444444,0,0,0.010850694444444444,0,0)" xlink:href="#aJ"/><use transform="matrix(0.010850694444444444,0,0,0.010850694444444444,16.536458333333332,0)" xlink:href="#Y"/><use transform="matrix(0.010850694444444444,0,0,0.010850694444444444,28.266059027777775,0)" xlink:href="#Q"/><use transform="matrix(0.010850694444444444,0,0,0.010850694444444444,41.22178819444444,0)" xlink:href="#R"/></g><path d="M678-1118v154H420V0H240v-964H20v-154h220v-149c0-194 155-293 318-293 85 0 141 18 168 30l-50 154c-19-6-47-17-97-17-111 0-159 58-159 166v109h258" id="aK"/><path d="M338-1490V0H158v-1490h180" id="aL"/><g id="w"><use transform="matrix(0.010850694444444444,0,0,0.010850694444444444,0,0)" xlink:href="#ac"/><use transform="matrix(0.010850694444444444,0,0,0.010850694444444444,13.606770833333332,0)" xlink:href="#R"/><use transform="matrix(0.010850694444444444,0,0,0.010850694444444444,21.603732638888886,0)" xlink:href="#V"/><use transform="matrix(0.010850694444444444,0,0,0.010850694444444444,34.928385416666664,0)" xlink:href="#aK"/><use transform="matrix(0.010850694444444444,0,0,0.010850694444444444,43.15321180555556,0)" xlink:href="#U"/><use transform="matrix(0.010850694444444444,0,0,0.010850694444444444,48.53515625,0)" xlink:href="#aL"/><use transform="matrix(0.010850694444444444,0,0,0.010850694444444444,53.91710069444444,0)" xlink:href="#Q"/><use transform="matrix(0.010850694444444444,0,0,0.010850694444444444,66.87282986111111,0)" xlink:href="#Y"/></g><path d="M52 0l541-1490h220L1361 0h-200l-149-416H398L254 0H52zm404-582h497c-103-290-145-390-251-756-108 377-145 460-246 756" id="aM"/><g id="x"><use transform="matrix(0.010850694444444444,0,0,0.010850694444444444,0,0)" xlink:href="#aM"/><use transform="matrix(0.010850694444444444,0,0,0.010850694444444444,15.33203125,0)" xlink:href="#ab"/><use transform="matrix(0.010850694444444444,0,0,0.010850694444444444,28.96050347222222,0)" xlink:href="#Q"/><use transform="matrix(0.010850694444444444,0,0,0.010850694444444444,41.916232638888886,0)" xlink:href="#O"/><use transform="matrix(0.010850694444444444,0,0,0.010850694444444444,55.045572916666664,0)" xlink:href="#P"/></g><path d="M677 24c-213 0-288-135-325-197h-20V0H158v-1490h180v551h14c37-59 106-193 324-193 279 0 474 222 474 576 0 356-194 580-473 580zm-27-161c209 0 317-186 317-421 0-232-105-413-317-413-206 0-314 166-314 413 0 249 111 421 314 421" id="aN"/><path d="M158 0v-1490h180v865h22l478-493h223L593-638 1096 0H865L456-523 338-412V0H158" id="aO"/><g id="y"><use transform="matrix(0.010850694444444444,0,0,0.010850694444444444,0,0)" xlink:href="#aK"/><use transform="matrix(0.010850694444444444,0,0,0.010850694444444444,7.573784722222222,0)" xlink:href="#Q"/><use transform="matrix(0.010850694444444444,0,0,0.010850694444444444,20.52951388888889,0)" xlink:href="#Q"/><use transform="matrix(0.010850694444444444,0,0,0.010850694444444444,33.48524305555556,0)" xlink:href="#ak"/><use transform="matrix(0.010850694444444444,0,0,0.010850694444444444,47.092013888888886,0)" xlink:href="#aN"/><use transform="matrix(0.010850694444444444,0,0,0.010850694444444444,60.9157986111111,0)" xlink:href="#S"/><use transform="matrix(0.010850694444444444,0,0,0.010850694444444444,73.39409722222221,0)" xlink:href="#T"/><use transform="matrix(0.010850694444444444,0,0,0.010850694444444444,86.08940972222221,0)" xlink:href="#aO"/></g><path d="M180 0v-1490h908v168H370v486h669v168H370v500h727V0H180" id="aP"/><path d="M481 0L54-1118h197c107 314 236 620 325 951 87-331 217-637 324-951h197L670 0H481" id="aQ"/><g id="z"><use transform="matrix(0.010850694444444444,0,0,0.010850694444444444,0,0)" xlink:href="#aP"/><use transform="matrix(0.010850694444444444,0,0,0.010850694444444444,13.35720486111111,0)" xlink:href="#aQ"/><use transform="matrix(0.010850694444444444,0,0,0.010850694444444444,25.73784722222222,0)" xlink:href="#S"/><use transform="matrix(0.010850694444444444,0,0,0.010850694444444444,38.21614583333333,0)" xlink:href="#aL"/><use transform="matrix(0.010850694444444444,0,0,0.010850694444444444,43.59809027777777,0)" xlink:href="#X"/><use transform="matrix(0.010850694444444444,0,0,0.010850694444444444,56.738281249999986,0)" xlink:href="#S"/><use transform="matrix(0.010850694444444444,0,0,0.010850694444444444,69.2165798611111,0)" xlink:href="#P"/><use transform="matrix(0.010850694444444444,0,0,0.010850694444444444,76.48654513888887,0)" xlink:href="#U"/><use transform="matrix(0.010850694444444444,0,0,0.010850694444444444,81.86848958333331,0)" xlink:href="#V"/><use transform="matrix(0.010850694444444444,0,0,0.010850694444444444,95.19314236111109,0)" xlink:href="#O"/></g><g id="A"><use transform="matrix(0.010850694444444444,0,0,0.010850694444444444,0,0)" xlink:href="#R"/><use transform="matrix(0.010850694444444444,0,0,0.010850694444444444,7.996961805555555,0)" xlink:href="#Q"/><use transform="matrix(0.010850694444444444,0,0,0.010850694444444444,20.95269097222222,0)" xlink:href="#Y"/><use transform="matrix(0.010850694444444444,0,0,0.010850694444444444,32.682291666666664,0)" xlink:href="#X"/><use transform="matrix(0.010850694444444444,0,0,0.010850694444444444,45.822482638888886,0)" xlink:href="#aL"/><use transform="matrix(0.010850694444444444,0,0,0.010850694444444444,51.529947916666664,0)" xlink:href="#P"/></g><g id="B"><use transform="matrix(0.010850694444444444,0,0,0.010850694444444444,0,0)" xlink:href="#aM"/><use transform="matrix(0.010850694444444444,0,0,0.010850694444444444,15.33203125,0)" xlink:href="#ab"/><use transform="matrix(0.010850694444444444,0,0,0.010850694444444444,28.96050347222222,0)" xlink:href="#ab"/><use transform="matrix(0.010850694444444444,0,0,0.010850694444444444,42.58897569444444,0)" xlink:href="#R"/><use transform="matrix(0.010850694444444444,0,0,0.010850694444444444,50.585937499999986,0)" xlink:href="#Q"/><use transform="matrix(0.010850694444444444,0,0,0.010850694444444444,63.54166666666666,0)" xlink:href="#ab"/><use transform="matrix(0.010850694444444444,0,0,0.010850694444444444,77.17013888888889,0)" xlink:href="#S"/><use transform="matrix(0.010850694444444444,0,0,0.010850694444444444,89.6484375,0)" xlink:href="#P"/><use transform="matrix(0.010850694444444444,0,0,0.010850694444444444,96.70138888888889,0)" xlink:href="#Q"/><use transform="matrix(0.010850694444444444,0,0,0.010850694444444444,109.65711805555556,0)" xlink:href="#ak"/></g><g id="C"><use transform="matrix(0.010850694444444444,0,0,0.010850694444444444,0,0)" xlink:href="#aM"/><use transform="matrix(0.010850694444444444,0,0,0.010850694444444444,15.33203125,0)" xlink:href="#ab"/><use transform="matrix(0.010850694444444444,0,0,0.010850694444444444,28.96050347222222,0)" xlink:href="#Q"/><use transform="matrix(0.010850694444444444,0,0,0.010850694444444444,41.916232638888886,0)" xlink:href="#O"/><use transform="matrix(0.010850694444444444,0,0,0.010850694444444444,55.045572916666664,0)" xlink:href="#P"/></g><path d="M180 0v-1490h901v168H370v510h643v168H370V0H180" id="aR"/><g id="D"><use transform="matrix(0.010850694444444444,0,0,0.010850694444444444,0,0)" xlink:href="#aR"/><use transform="matrix(0.010850694444444444,0,0,0.010850694444444444,12.239583333333332,0)" xlink:href="#Q"/><use transform="matrix(0.010850694444444444,0,0,0.010850694444444444,25.1953125,0)" xlink:href="#Q"/><use transform="matrix(0.010850694444444444,0,0,0.010850694444444444,38.151041666666664,0)" xlink:href="#ak"/><use transform="matrix(0.010850694444444444,0,0,0.010850694444444444,51.7578125,0)" xlink:href="#aN"/><use transform="matrix(0.010850694444444444,0,0,0.010850694444444444,65.58159722222221,0)" xlink:href="#S"/><use transform="matrix(0.010850694444444444,0,0,0.010850694444444444,78.05989583333333,0)" xlink:href="#T"/><use transform="matrix(0.010850694444444444,0,0,0.010850694444444444,90.75520833333333,0)" xlink:href="#aO"/></g><g id="E"><use transform="matrix(0.010850694444444444,0,0,0.010850694444444444,0,0)" xlink:href="#ah"/><use transform="matrix(0.010850694444444444,0,0,0.010850694444444444,19.466145833333332,0)" xlink:href="#Q"/><use transform="matrix(0.010850694444444444,0,0,0.010850694444444444,32.421875,0)" xlink:href="#ah"/><use transform="matrix(0.010850694444444444,0,0,0.010850694444444444,51.88802083333333,0)" xlink:href="#V"/><use transform="matrix(0.010850694444444444,0,0,0.010850694444444444,65.2126736111111,0)" xlink:href="#R"/><use transform="matrix(0.010850694444444444,0,0,0.010850694444444444,73.92578125,0)" xlink:href="#aa"/></g><path d="M692-1560L212 224H46l480-1784h166" id="aS"/><use transform="matrix(0.010850694444444444,0,0,0.010850694444444444,0,0)" xlink:href="#aS" id="F"/><path d="M180 0v-1490h510c348 0 508 209 508 474 0 266-160 477-507 477H370V0H180zm190-706h312c236 0 327-133 327-310 0-176-91-307-329-307H370v617" id="aT"/><path d="M126 0v-134l627-806v-11H146v-167h839v143L376-178v11h629V0H126" id="aU"/><g id="G"><use transform="matrix(0.010850694444444444,0,0,0.010850694444444444,0,0)" xlink:href="#aT"/><use transform="matrix(0.010850694444444444,0,0,0.010850694444444444,14.073350694444445,0)" xlink:href="#Q"/><use transform="matrix(0.010850694444444444,0,0,0.010850694444444444,27.029079861111104,0)" xlink:href="#R"/><use transform="matrix(0.010850694444444444,0,0,0.010850694444444444,35.39496527777777,0)" xlink:href="#Y"/><use transform="matrix(0.010850694444444444,0,0,0.010850694444444444,47.12456597222221,0)" xlink:href="#V"/><use transform="matrix(0.010850694444444444,0,0,0.010850694444444444,60.449218749999986,0)" xlink:href="#O"/><use transform="matrix(0.010850694444444444,0,0,0.010850694444444444,73.57855902777777,0)" xlink:href="#S"/><use transform="matrix(0.010850694444444444,0,0,0.010850694444444444,86.05685763888889,0)" xlink:href="#aL"/><use transform="matrix(0.010850694444444444,0,0,0.010850694444444444,91.43880208333333,0)" xlink:href="#U"/><use transform="matrix(0.010850694444444444,0,0,0.010850694444444444,96.82074652777777,0)" xlink:href="#aU"/><use transform="matrix(0.010850694444444444,0,0,0.010850694444444444,109.09288194444444,0)" xlink:href="#S"/><use transform="matrix(0.010850694444444444,0,0,0.010850694444444444,121.57118055555556,0)" xlink:href="#P"/><use transform="matrix(0.010850694444444444,0,0,0.010850694444444444,128.84114583333334,0)" xlink:href="#U"/><use transform="matrix(0.010850694444444444,0,0,0.010850694444444444,134.2230902777778,0)" xlink:href="#V"/><use transform="matrix(0.010850694444444444,0,0,0.010850694444444444,147.54774305555557,0)" xlink:href="#O"/></g><path d="M798-719v166H144v-166h654" id="aV"/><g id="H"><use transform="matrix(0.010850694444444444,0,0,0.010850694444444444,0,0)" xlink:href="#Y"/><use transform="matrix(0.010850694444444444,0,0,0.010850694444444444,11.729600694444445,0)" xlink:href="#Q"/><use transform="matrix(0.010850694444444444,0,0,0.010850694444444444,24.68532986111111,0)" xlink:href="#aL"/><use transform="matrix(0.010850694444444444,0,0,0.010850694444444444,30.06727430555556,0)" xlink:href="#aK"/><use transform="matrix(0.010850694444444444,0,0,0.010850694444444444,37.66276041666667,0)" xlink:href="#aV"/><use transform="matrix(0.010850694444444444,0,0,0.010850694444444444,47.88411458333333,0)" xlink:href="#U"/><use transform="matrix(0.010850694444444444,0,0,0.010850694444444444,53.26605902777778,0)" xlink:href="#ah"/><use transform="matrix(0.010850694444444444,0,0,0.010850694444444444,72.73220486111111,0)" xlink:href="#ac"/><use transform="matrix(0.010850694444444444,0,0,0.010850694444444444,86.33897569444444,0)" xlink:href="#R"/><use transform="matrix(0.010850694444444444,0,0,0.010850694444444444,94.3359375,0)" xlink:href="#V"/><use transform="matrix(0.010850694444444444,0,0,0.010850694444444444,107.2265625,0)" xlink:href="#aQ"/><use transform="matrix(0.010850694444444444,0,0,0.010850694444444444,119.2816840277778,0)" xlink:href="#Q"/><use transform="matrix(0.010850694444444444,0,0,0.010850694444444444,132.23741319444446,0)" xlink:href="#ah"/><use transform="matrix(0.010850694444444444,0,0,0.010850694444444444,151.7035590277778,0)" xlink:href="#Q"/><use transform="matrix(0.010850694444444444,0,0,0.010850694444444444,164.65928819444446,0)" xlink:href="#O"/><use transform="matrix(0.010850694444444444,0,0,0.010850694444444444,177.78862847222223,0)" xlink:href="#P"/></g><path d="M180 0v-1490h270l367 940c28 72 75 218 110 339 35-117 81-264 110-339l362-940h271V0h-187c2-448-5-837 7-1287-157 497-311 829-483 1287H842C666-458 514-784 354-1284c12 438 5 843 7 1284H180" id="aW"/><g id="I"><use transform="matrix(0.010850694444444444,0,0,0.010850694444444444,0,0)" xlink:href="#aW"/><use transform="matrix(0.010850694444444444,0,0,0.010850694444444444,20.07378472222222,0)" xlink:href="#Q"/><use transform="matrix(0.010850694444444444,0,0,0.010850694444444444,33.24652777777778,0)" xlink:href="#S"/><use transform="matrix(0.010850694444444444,0,0,0.010850694444444444,45.724826388888886,0)" xlink:href="#Y"/><use transform="matrix(0.010850694444444444,0,0,0.010850694444444444,57.45442708333333,0)" xlink:href="#X"/><use transform="matrix(0.010850694444444444,0,0,0.010850694444444444,70.59461805555554,0)" xlink:href="#R"/><use transform="matrix(0.010850694444444444,0,0,0.010850694444444444,78.5915798611111,0)" xlink:href="#Q"/></g><g id="J"><use transform="matrix(0.010850694444444444,0,0,0.010850694444444444,0,0)" xlink:href="#Y"/><use transform="matrix(0.010850694444444444,0,0,0.010850694444444444,11.729600694444445,0)" xlink:href="#T"/><use transform="matrix(0.010850694444444444,0,0,0.010850694444444444,24.424913194444443,0)" xlink:href="#T"/><use transform="matrix(0.010850694444444444,0,0,0.010850694444444444,37.12022569444444,0)" xlink:href="#X"/><use transform="matrix(0.010850694444444444,0,0,0.010850694444444444,50.260416666666664,0)" xlink:href="#Q"/><use transform="matrix(0.010850694444444444,0,0,0.010850694444444444,63.21614583333333,0)" xlink:href="#Y"/><use transform="matrix(0.010850694444444444,0,0,0.010850694444444444,74.94574652777777,0)" xlink:href="#Y"/></g><g id="K"><use transform="matrix(0.010850694444444444,0,0,0.010850694444444444,0,0)" xlink:href="#S"/><use transform="matrix(0.010850694444444444,0,0,0.010850694444444444,12.47829861111111,0)" xlink:href="#O"/><use transform="matrix(0.010850694444444444,0,0,0.010850694444444444,25.60763888888889,0)" xlink:href="#ak"/></g><g id="L"><use transform="matrix(0.010850694444444444,0,0,0.010850694444444444,0,0)" xlink:href="#R"/><use transform="matrix(0.010850694444444444,0,0,0.010850694444444444,7.996961805555555,0)" xlink:href="#Q"/><use transform="matrix(0.010850694444444444,0,0,0.010850694444444444,20.95269097222222,0)" xlink:href="#Y"/><use transform="matrix(0.010850694444444444,0,0,0.010850694444444444,32.682291666666664,0)" xlink:href="#ac"/><use transform="matrix(0.010850694444444444,0,0,0.010850694444444444,46.2890625,0)" xlink:href="#V"/><use transform="matrix(0.010850694444444444,0,0,0.010850694444444444,59.61371527777778,0)" xlink:href="#O"/><use transform="matrix(0.010850694444444444,0,0,0.010850694444444444,72.74305555555556,0)" xlink:href="#Y"/><use transform="matrix(0.010850694444444444,0,0,0.010850694444444444,84.47265625,0)" xlink:href="#Q"/></g><g id="M"><use transform="matrix(0.010850694444444444,0,0,0.010850694444444444,0,0)" xlink:href="#Z"/><use transform="matrix(0.010850694444444444,0,0,0.010850694444444444,13.606770833333332,0)" xlink:href="#X"/><use transform="matrix(0.010850694444444444,0,0,0.010850694444444444,26.746961805555554,0)" xlink:href="#S"/><use transform="matrix(0.010850694444444444,0,0,0.010850694444444444,39.225260416666664,0)" xlink:href="#aL"/><use transform="matrix(0.010850694444444444,0,0,0.010850694444444444,44.60720486111111,0)" xlink:href="#U"/><use transform="matrix(0.010850694444444444,0,0,0.010850694444444444,49.98914930555556,0)" xlink:href="#P"/><use transform="matrix(0.010850694444444444,0,0,0.010850694444444444,57.69314236111111,0)" xlink:href="#aa"/></g></defs></g></svg>
