<?xml version="1.0" encoding="UTF-8" standalone="no"?>
<!DOCTYPE svg PUBLIC "-//W3C//DTD SVG 1.1//EN" "http://www.w3.org/Graphics/SVG/1.1/DTD/svg11.dtd">
<svg width="100%" height="100%" viewBox="0 0 307 264" version="1.1" xmlns="http://www.w3.org/2000/svg" xmlns:xlink="http://www.w3.org/1999/xlink" xml:space="preserve" xmlns:serif="http://www.serif.com/" style="fill-rule:evenodd;clip-rule:evenodd;">
    <defs>
        <linearGradient id="brandGradient" x1="0%" y1="0%" x2="100%" y2="100%">
            <stop offset="0%" stop-color="#4f46e5"/>
            <stop offset="50%" stop-color="#9333ea"/>
            <stop offset="100%" stop-color="#ec4899"/>
        </linearGradient>
    </defs>
    <g id="Artboard1" transform="matrix(0.908284,0,0,0.970588,-310.633136,-303.794118)">
        <rect x="342" y="313" width="338" height="272" style="fill:none;"/>
        <g transform="matrix(1.100977,0,0,1.030303,-55.452769,-12.575758)">
            <path d="M519.57,475.33C527.003,475.397 539.123,475.383 555.93,475.29C562.64,475.25 569.28,475.33 575.76,474.28C593.23,471.43 608.67,459.76 617.54,444.35C631.27,420.51 627.89,388.4 609.42,367.81C597.79,354.84 581.74,346.19 564.2,344.8C560.553,344.513 556.817,344.367 552.99,344.36C517.19,344.287 480.453,344.29 442.78,344.37C442.429,344.37 442.14,344.081 442.14,343.73L442.14,322.88C442.14,322.877 442.14,322.875 442.14,322.872C442.14,322.576 441.896,322.332 441.6,322.332C441.489,322.332 441.381,322.366 441.29,322.43L369.87,372.3C369.641,372.463 369.505,372.727 369.505,373.009C369.505,373.285 369.637,373.546 369.86,373.71L441.48,426.22C441.528,426.254 441.58,426.281 441.636,426.299C441.933,426.397 442.257,426.237 442.352,425.945C442.371,425.889 442.38,425.83 442.38,425.77L442.38,400.29C442.38,399.917 442.691,399.61 443.07,399.61C473.723,399.69 505.367,399.713 538,399.68C556.13,399.67 568.52,411.38 567.03,430.32C566.63,435.407 564.467,439.743 560.54,443.33C555.32,448.09 550.293,452.213 545.46,455.7C538.133,460.987 529.463,467.403 519.45,474.95C519.396,474.989 519.363,475.053 519.363,475.12C519.363,475.234 519.456,475.328 519.57,475.33" style="fill:none;fill-rule:nonzero;stroke:url(#brandGradient);stroke-width:2px;"/>
            <path d="M509.43,445.65C483.763,445.41 470.18,445.297 468.68,445.31C458.607,445.397 452,445.74 448.86,446.34C432.38,449.5 419.603,457.4 410.53,470.04C394.97,491.72 394.84,521.6 410.6,543.75C421.86,559.57 439.78,568.26 459,568.51C476.673,568.73 494.3,568.71 511.88,568.45C511.881,568.45 511.882,568.45 511.884,568.45C512.081,568.45 512.244,568.288 512.244,568.09C512.244,567.981 512.195,567.878 512.11,567.81C497.79,555.977 484.06,544.493 470.92,533.36C462.41,526.15 457.34,520.48 456.48,509.51C455.4,495.73 459.95,484.347 470.13,475.36C472.85,472.96 474.467,471.577 474.98,471.21C482.773,465.697 494.297,457.303 509.55,446.03C509.604,445.991 509.637,445.927 509.637,445.86C509.637,445.746 509.544,445.652 509.43,445.65" style="fill:none;fill-rule:nonzero;stroke:url(#brandGradient);stroke-width:2px;"/>
            <path d="M487.44,508.6C509.273,527.1 527.997,542.783 543.61,555.65C547.89,559.183 552.227,562.543 556.62,565.73C557.685,566.499 558.915,567.01 560.21,567.22C601.06,573.84 641.12,550.37 654.2,511.04C660.87,491 660.49,468.14 654.22,447.65C654.202,447.591 654.17,447.538 654.126,447.495C653.983,447.359 653.75,447.368 653.61,447.514C653.568,447.558 653.537,447.612 653.52,447.67C652.98,449.69 652.55,451.94 651.73,454.12C639.72,486.25 605.65,505.94 572.24,507.23C550.74,508.05 524.63,507.61 487.82,507.58C487.819,507.58 487.819,507.58 487.818,507.58C487.5,507.58 487.238,507.842 487.238,508.16C487.238,508.329 487.312,508.49 487.44,508.6" style="fill:none;fill-rule:nonzero;stroke:url(#brandGradient);stroke-width:2px;"/>
        </g>
        <g transform="matrix(1.100977,0,0,1.030303,-55.452769,-12.575758)">
            <path d="M519.57,475.33C519.456,475.328 519.363,475.234 519.363,475.12C519.363,475.053 519.396,474.989 519.45,474.95C529.463,467.403 538.133,460.987 545.46,455.7C550.293,452.213 555.32,448.09 560.54,443.33C564.467,439.743 566.63,435.407 567.03,430.32C568.52,411.38 556.13,399.67 538,399.68C505.367,399.713 473.723,399.69 443.07,399.61C442.691,399.61 442.38,399.917 442.38,400.29L442.38,425.77C442.38,425.83 442.371,425.889 442.352,425.945C442.257,426.237 441.933,426.397 441.636,426.299C441.58,426.281 441.528,426.254 441.48,426.22L369.86,373.71C369.637,373.546 369.505,373.285 369.505,373.009C369.505,372.727 369.641,372.463 369.87,372.3L441.29,322.43C441.381,322.366 441.489,322.332 441.6,322.332C441.896,322.332 442.14,322.576 442.14,322.872C442.14,322.875 442.14,322.877 442.14,322.88L442.14,343.73C442.14,344.081 442.429,344.37 442.78,344.37C480.453,344.29 517.19,344.287 552.99,344.36C556.817,344.367 560.553,344.513 564.2,344.8C581.74,346.19 597.79,354.84 609.42,367.81C627.89,388.4 631.27,420.51 617.54,444.35C608.67,459.76 593.23,471.43 575.76,474.28C569.28,475.33 562.64,475.25 555.93,475.29C539.123,475.383 527.003,475.397 519.57,475.33Z" style="fill:url(#brandGradient);fill-rule:nonzero;"/>
        </g>
        <g transform="matrix(1.100977,0,0,1.030303,-55.452769,-12.575758)">
            <path d="M509.43,445.65C509.544,445.652 509.637,445.746 509.637,445.86C509.637,445.927 509.604,445.991 509.55,446.03C494.297,457.303 482.773,465.697 474.98,471.21C474.467,471.577 472.85,472.96 470.13,475.36C459.95,484.347 455.4,495.73 456.48,509.51C457.34,520.48 462.41,526.15 470.92,533.36C484.06,544.493 497.79,555.977 512.11,567.81C512.195,567.878 512.244,567.981 512.244,568.09C512.244,568.288 512.081,568.45 511.884,568.45C511.882,568.45 511.881,568.45 511.88,568.45C494.3,568.71 476.673,568.73 459,568.51C439.78,568.26 421.86,559.57 410.6,543.75C394.84,521.6 394.97,491.72 410.53,470.04C419.603,457.4 432.38,449.5 448.86,446.34C452,445.74 458.607,445.397 468.68,445.31C470.18,445.297 483.763,445.41 509.43,445.65Z" style="fill:url(#brandGradient);fill-rule:nonzero;"/>
        </g>
        <g transform="matrix(1.100977,0,0,1.030303,-55.452769,-12.575758)">
            <path d="M487.44,508.6C487.312,508.49 487.238,508.329 487.238,508.16C487.238,507.842 487.5,507.58 487.818,507.58C487.819,507.58 487.819,507.58 487.82,507.58C524.63,507.61 550.74,508.05 572.24,507.23C605.65,505.94 639.72,486.25 651.73,454.12C652.55,451.94 652.98,449.69 653.52,447.67C653.537,447.612 653.568,447.558 653.61,447.514C653.75,447.368 653.983,447.359 654.126,447.495C654.17,447.538 654.202,447.591 654.22,447.65C660.49,468.14 660.87,491 654.2,511.04C641.12,550.37 601.06,573.84 560.21,567.22C558.915,567.01 557.685,566.499 556.62,565.73C552.227,562.543 547.89,559.183 543.61,555.65C527.997,542.783 509.273,527.1 487.44,508.6Z" style="fill:url(#brandGradient);fill-rule:nonzero;"/>
        </g>
    </g>
</svg>
